<svg xmlns="http://www.w3.org/2000/svg" aria-hidden="true" style="position:absolute;width:0;height:0;overflow:hidden">
  <defs>
    <symbol id="icon-close" viewBox="0 0 32 32">
      <path stroke-linecap="round" stroke-linejoin="round" stroke-width="3" d="M24 8 8 24M8 8l16 16"/>
    </symbol>
    <symbol id="icon-menu" viewBox="0 0 32 32">
      <path stroke-linecap="round" stroke-linejoin="round" stroke-width="3" d="M5.333 8h21.334M5.333 16H16M5.334 24h21.333"/>
    </symbol>
    <symbol id="icon-logo" viewBox="0 0 32 32">
      <path d="M29.083.315h-4.011c-1.236 0-2.24.981-2.24 2.194v3.929c0 1.214 1.004 2.197 2.24 2.197h4.011c1.237 0 2.24-.983 2.24-2.196V2.51c0-1.214-1.003-2.196-2.24-2.196zM6.731 23.04H2.413c-1.333 0-2.412.983-2.412 2.196v3.929c0 1.212 1.081 2.196 2.412 2.196h4.318c1.333 0 2.412-.983 2.412-2.196v-3.929c0-1.212-1.081-2.196-2.412-2.196zm-.482-11.458H2.24c-1.237 0-2.24.983-2.24 2.196v3.929c0 1.212 1.003 2.196 2.24 2.196h4.009c1.237 0 2.24-.983 2.24-2.196v-3.929c0-1.212-1.003-2.196-2.24-2.196zm11.516 11.396h-4.009c-1.237 0-2.24.983-2.24 2.196v3.929c0 1.212 1.003 2.196 2.24 2.196h4.009c1.237 0 2.24-.983 2.24-2.196v-3.929c0-1.212-1.003-2.196-2.24-2.196zM6.249.087H2.24C1.003.087 0 1.067 0 2.281V6.21c0 1.216 1.003 2.199 2.24 2.199h4.009c1.237 0 2.24-.983 2.24-2.196V2.284C8.491 1.066 7.488.085 6.251.085zm11.827 11.611h-4.011c-1.237 0-2.24.983-2.24 2.196v3.929c0 1.212 1.004 2.196 2.24 2.196h4.011c1.237 0 2.24-.983 2.24-2.196v-3.929c0-1.212-1.003-2.196-2.24-2.196zm11.257 11.28h-4.009c-1.237 0-2.24.983-2.24 2.196v3.929c0 1.212 1.003 2.196 2.24 2.196h4.009c1.237 0 2.24-.983 2.24-2.196v-3.929c0-1.212-1.003-2.196-2.24-2.196zM17.591.224H13.58c-1.237 0-2.24.983-2.24 2.196v3.929c0 1.212 1.004 2.196 2.24 2.196h4.011c1.237 0 2.24-.983 2.24-2.196V2.418c0-1.212-1.003-2.196-2.24-2.196zm11.453 11.701h-4.009c-1.237 0-2.24.983-2.24 2.196v3.929c0 1.212 1.003 2.196 2.24 2.196h4.009c1.237 0 2.24-.983 2.24-2.196v-3.929c0-1.212-1.003-2.196-2.24-2.196z"/>
    </symbol>
  </defs>
</svg>
